<?xml version="1.0" encoding="UTF-8"?>
<svg width="596px" height="354px" viewBox="0 0 596 354" version="1.1" xmlns="http://www.w3.org/2000/svg" xmlns:xlink="http://www.w3.org/1999/xlink">
    <!-- Generator: Sketch 58 (84663) - https://sketch.com -->
    <title>toucan</title>
    <desc>Created with Sketch.</desc>
    <g id="Page-1" stroke="none" stroke-width="1" fill="none" fill-rule="evenodd">
        <g id="Toucan" transform="translate(-2930.000000, -2081.000000)" stroke="#FFFFFF">
            <g id="toucan" transform="translate(2930.000000, 2081.000000)">
                <path d="M262,184 L91.6793894,184 C84.436105,183.865187 78.2296859,182.713665 73.0601321,180.545432 C67.5792565,178.246624 60.7428259,171.124526 58.3490044,167.929224 C53.3207829,161.217492 51.1887112,152.700125 51.9527895,142.377122" id="Line-5" stroke-width="20" stroke-linecap="square"></path>
                <path d="M266.000425,10.3285295 C172.284055,13.4655385 116.94574,18.3166519 103.254262,24.1625391 C84.201184,32.2976827 61.0000588,49.4303168 43.2224416,69.6928761 C24.7949065,90.6961982 13.2485349,113.434536 10.5899127,136.113034 L266.000031,136.113001 L266.000425,10.3285295 Z" id="Combined-Shape" stroke-width="20"></path>
                <path d="M114,25 C124.25322,33.147907 132.442457,46.1887992 138.567711,64.1226765 C144.692966,82.0565538 145.638257,102.348995 141.403585,125" id="Line" stroke-width="20" stroke-linecap="square"></path>
                <path d="M266,10 L266,279 C266,314.898509 295.101491,344 331,344 L467.897572,344 L467.044283,260.269375 L399.810422,260.269375 L399.444485,250.649497 C397.805677,207.567991 399.564886,184.971427 407.354591,176.711154 C414.736336,168.883485 433.428016,166.966906 468,168.701602 L468,75 C468,39.1014913 438.898509,10 403,10 L266,10 Z" id="Rectangle" stroke-width="20"></path>
                <path d="M432,136 L432,265.5 C432,280.687831 444.312169,293 459.5,293 L523,293 L523,163.5 C523,148.312169 510.687831,136 495.5,136 L432,136 Z" id="Rectangle" stroke-width="20" transform="translate(477.500000, 214.500000) rotate(90.000000) translate(-477.500000, -214.500000) "></path>
                <path d="M300.5,74.5 L300.5,105 C300.5,106.932997 302.067003,108.5 304,108.5 L334.5,108.5 L334.5,78 C334.5,76.0670034 332.932997,74.5 331,74.5 L300.5,74.5 Z" id="Rectangle" fill="#FFFFFF"></path>
                <path d="M272,249 C326.019079,206.658629 361.344998,170.989869 377.977756,141.993722 C394.610515,112.997574 381.696237,70.3330005 339.234924,14" id="Line-2" stroke-width="20" stroke-linecap="square"></path>
                <g id="Group" transform="translate(487.500000, 131.000000)" stroke-linecap="square" stroke-width="20">
                    <path d="M0.5,1 L98.5,1" id="Line-3"></path>
                    <path d="M98.5,1 C98.5,33.1481277 98.5,53.4956571 98.5,62.0425881 C98.5,71.9872858 96.1888665,75.1521643 94.9256033,78.120743 C89.9838917,86.9390808 81.6966554,91.6713873 70.0638944,92.3176625" id="Line-4"></path>
                </g>
            </g>
        </g>
    </g>
</svg>