<?xml version="1.0" encoding="UTF-8"?>
<svg width="100%" height="100%" viewBox="0 0 24 17" version="1.1" xmlns="http://www.w3.org/2000/svg" xmlns:xlink="http://www.w3.org/1999/xlink">
    <!-- Generator: Sketch 58 (84663) - https://sketch.com -->
    <title>toucanIcon</title>
    <desc>Created with Sketch.</desc>
    <g id="Page-1" stroke="current" stroke-width="1" fill="current" fill-rule="evenodd">
        <g id="Toucan" transform="translate(-5164.000000, -2736.000000)" stroke="current">
            <g id="toucanIcon" transform="translate(5164.000000, 2735.000000)">
                <path d="M9.03272727,8.02545455 L3.34010678,8.02545455 C3.09801471,8.02220386 2.89057776,7.99443764 2.71779592,7.94215589 C2.53460878,7.88672561 2.30611498,7.71499322 2.22610636,7.63794614 C2.06717146,7.48489425 1.99481021,7.29290252 2.00902262,7.06197096 C2.00954053,7.05355559 2.00949108,6.86734787 2.00902262,6.59434509 C2.00900696,6.58521978 4.53732571,6.60352016 9.59397888,6.64924622 L9.59397888,8.02545455 L9.03272727,8.02545455 Z" id="Line-5" stroke-width="0.796602653" stroke-linecap="square"></path>
                <path d="M9.6327281,1.39853085 C9.62373535,1.39836479 9.61453548,1.3981917 9.60511662,1.39801173 C9.39869891,1.39406755 9.31240492,1.39368152 9.20942514,1.39796354 C6.24935279,1.52104687 4.34138122,1.7366249 3.85445989,1.96621398 C2.24734387,2.72398793 0.62593298,4.68186189 0.420203628,6.58008968 L9.57757666,6.58008968 L9.6327281,1.39853085 Z" id="Path" stroke-width="0.796602653"></path>
                <path d="M5.01818182,2.00363636 C5.42656894,2.32816858 5.75274735,2.84758905 5.99671703,3.56189776 C6.24068671,4.27620647 6.27833778,5.0844571 6.10967025,5.98664963" id="Line" stroke-width="0.796602653" stroke-linecap="square"></path>
                <path d="M9.59117892,1.39830133 L9.59117892,14.3327401 C9.59117892,15.7625824 10.7502952,16.9216987 12.1801375,16.9216987 L17.6368657,16.9216987 L17.6368657,13.1611242 L15.6475825,13.1611242 L15.6475825,9.91181403 L15.6716314,9.77550882 C15.78543,9.46305269 15.8412428,9.33352376 15.9270651,9.24330885 C16.1522549,9.00659339 16.6465971,8.92161897 17.590723,8.88122141 L17.6368657,8.87977716 L17.6368657,3.98725995 C17.6368657,2.55741758 16.4777495,1.39830133 15.0479071,1.39830133 L9.59117892,1.39830133 Z M16.5066838,9.79097991 C16.5054243,9.79150483 16.5046023,9.791968 16.5042239,9.79236574 C16.5064181,9.79005925 16.5081197,9.78868567 16.5093666,9.78818319 Z" id="Rectangle" stroke-width="0.796602653"></path>
                <path d="M11.1963125,4.19833891 L11.1963125,5.09057537 L12.088549,5.09057537 L12.088549,4.19833891 L11.1963125,4.19833891 Z" id="Rectangle" stroke-width="0.501818182" fill="#000000"></path>
                <path d="M9.83015972,10.917703 C11.9817468,9.23124059 13.3887829,7.81054917 14.0512678,6.65562878 C14.7137528,5.50070838 14.1993754,3.80137274 12.5081356,1.55762186" id="Line-2" stroke-width="0.796602653" stroke-linecap="square"></path>
                <path d="M16.7183013,8.11830133 L16.7183013,12.94637 C16.7183013,13.5513033 17.2086967,14.0416987 17.81363,14.0416987 L20.7216987,14.0416987 L20.7216987,9.21362997 C20.7216987,8.60869667 20.2313033,8.11830133 19.62637,8.11830133 L16.7183013,8.11830133 Z" id="Rectangle" stroke-width="0.796602653" transform="translate(18.720000, 11.080000) rotate(90.000000) translate(-18.720000, -11.080000) "></path>
                <g id="Group" transform="translate(17.240000, 6.800000)" stroke-linecap="square" stroke-width="0.796602653">
                    <path d="M4.44367004,2.87983013 L4.44367004,2.26764221 L0.406484375,2.26764221 L0.406484375,6.10622664e-14 L5.8396317,0.0306121826 C5.8396317,1.11566395 5.8396317,1.7471289 5.8396317,1.92500702 C5.8396317,2.23864547 5.76160807,2.33846022 5.71896044,2.43208402 C5.55212876,2.71019903 5.27235252,2.85944774 4.8796317,2.87983013 L4.44367004,2.87983013 Z" id="Line-4"></path>
                </g>
            </g>
        </g>
    </g>
</svg>